<mxfile host="app.diagrams.net" modified="2021-04-18T18:46:17.891Z" agent="5.0 (Windows NT 10.0; Win64; x64) AppleWebKit/537.36 (KHTML, like Gecko) Chrome/89.0.4389.128 Safari/537.36" etag="_b5U-t8a5GYz1BvpZRtZ" version="14.6.1" type="github">
  <diagram id="anAy9yI8WTqOqoTKuphk" name="Page-1">
    <mxGraphModel dx="1720" dy="829" grid="1" gridSize="10" guides="1" tooltips="1" connect="1" arrows="1" fold="1" page="1" pageScale="1" pageWidth="827" pageHeight="1169" math="0" shadow="0">
      <root>
        <mxCell id="0" />
        <mxCell id="1" parent="0" />
        <mxCell id="Z3jmQzQCZ1PrEpi4vK5F-1" value="AIWdataRepositoryGet" style="swimlane;fontStyle=1;align=center;verticalAlign=top;childLayout=stackLayout;horizontal=1;startSize=26;horizontalStack=0;resizeParent=1;resizeParentMax=0;resizeLast=0;collapsible=1;marginBottom=0;" parent="1" vertex="1">
          <mxGeometry x="972" y="230" width="280" height="170" as="geometry" />
        </mxCell>
        <mxCell id="Z3jmQzQCZ1PrEpi4vK5F-2" value="+ dataRepo: DataRepository&#xa;+ profileInteractor: ProfileInteractor" style="text;strokeColor=none;fillColor=none;align=left;verticalAlign=top;spacingLeft=4;spacingRight=4;overflow=hidden;rotatable=0;points=[[0,0.5],[1,0.5]];portConstraint=eastwest;" parent="Z3jmQzQCZ1PrEpi4vK5F-1" vertex="1">
          <mxGeometry y="26" width="280" height="44" as="geometry" />
        </mxCell>
        <mxCell id="Z3jmQzQCZ1PrEpi4vK5F-3" value="" style="line;strokeWidth=1;fillColor=none;align=left;verticalAlign=middle;spacingTop=-1;spacingLeft=3;spacingRight=3;rotatable=0;labelPosition=right;points=[];portConstraint=eastwest;" parent="Z3jmQzQCZ1PrEpi4vK5F-1" vertex="1">
          <mxGeometry y="70" width="280" height="8" as="geometry" />
        </mxCell>
        <mxCell id="Z3jmQzQCZ1PrEpi4vK5F-4" value="+ getDataRepository(rids: &#xa;       List&lt;String&gt;): &#xa;       Single&lt;List&lt;CompanyInfoStruct&gt;&gt;&#xa;+ getChosenMerchantsList(): &#xa;       List&lt;String&gt;" style="text;strokeColor=none;fillColor=none;align=left;verticalAlign=top;spacingLeft=4;spacingRight=4;overflow=hidden;rotatable=0;points=[[0,0.5],[1,0.5]];portConstraint=eastwest;" parent="Z3jmQzQCZ1PrEpi4vK5F-1" vertex="1">
          <mxGeometry y="78" width="280" height="92" as="geometry" />
        </mxCell>
        <mxCell id="Z3jmQzQCZ1PrEpi4vK5F-5" value="ActualInfoWidgetActivity" style="swimlane;fontStyle=1;align=center;verticalAlign=top;childLayout=stackLayout;horizontal=1;startSize=26;horizontalStack=0;resizeParent=1;resizeParentMax=0;resizeLast=0;collapsible=1;marginBottom=0;" parent="1" vertex="1">
          <mxGeometry x="1490" y="540" width="280" height="120" as="geometry" />
        </mxCell>
        <mxCell id="Z3jmQzQCZ1PrEpi4vK5F-6" value="+ toolbarSettings: ToolbarSettings&#xa;" style="text;strokeColor=none;fillColor=none;align=left;verticalAlign=top;spacingLeft=4;spacingRight=4;overflow=hidden;rotatable=0;points=[[0,0.5],[1,0.5]];portConstraint=eastwest;" parent="Z3jmQzQCZ1PrEpi4vK5F-5" vertex="1">
          <mxGeometry y="26" width="280" height="26" as="geometry" />
        </mxCell>
        <mxCell id="Z3jmQzQCZ1PrEpi4vK5F-7" value="" style="line;strokeWidth=1;fillColor=none;align=left;verticalAlign=middle;spacingTop=-1;spacingLeft=3;spacingRight=3;rotatable=0;labelPosition=right;points=[];portConstraint=eastwest;" parent="Z3jmQzQCZ1PrEpi4vK5F-5" vertex="1">
          <mxGeometry y="52" width="280" height="8" as="geometry" />
        </mxCell>
        <mxCell id="Z3jmQzQCZ1PrEpi4vK5F-8" value="+ getFragment(): BaseFragment&#xa;+ onCreateOptionsMenu(menu: Menu?):&#xa;     Boolean" style="text;strokeColor=none;fillColor=none;align=left;verticalAlign=top;spacingLeft=4;spacingRight=4;overflow=hidden;rotatable=0;points=[[0,0.5],[1,0.5]];portConstraint=eastwest;" parent="Z3jmQzQCZ1PrEpi4vK5F-5" vertex="1">
          <mxGeometry y="60" width="280" height="60" as="geometry" />
        </mxCell>
        <mxCell id="Z3jmQzQCZ1PrEpi4vK5F-9" value="ActualInfoWidgetFragment" style="swimlane;fontStyle=1;align=center;verticalAlign=top;childLayout=stackLayout;horizontal=1;startSize=26;horizontalStack=0;resizeParent=1;resizeParentMax=0;resizeLast=0;collapsible=1;marginBottom=0;" parent="1" vertex="1">
          <mxGeometry x="1490" y="700" width="280" height="150" as="geometry" />
        </mxCell>
        <mxCell id="Z3jmQzQCZ1PrEpi4vK5F-10" value="+ client: ApiClient&#xa;+ dataRepository: DataRepository&#xa;+ profileInteractor: ProfileInteractor&#xa;+ secureStorage: SecureStorage&#xa;" style="text;strokeColor=none;fillColor=none;align=left;verticalAlign=top;spacingLeft=4;spacingRight=4;overflow=hidden;rotatable=0;points=[[0,0.5],[1,0.5]];portConstraint=eastwest;" parent="Z3jmQzQCZ1PrEpi4vK5F-9" vertex="1">
          <mxGeometry y="26" width="280" height="64" as="geometry" />
        </mxCell>
        <mxCell id="Z3jmQzQCZ1PrEpi4vK5F-11" value="" style="line;strokeWidth=1;fillColor=none;align=left;verticalAlign=middle;spacingTop=-1;spacingLeft=3;spacingRight=3;rotatable=0;labelPosition=right;points=[];portConstraint=eastwest;" parent="Z3jmQzQCZ1PrEpi4vK5F-9" vertex="1">
          <mxGeometry y="90" width="280" height="8" as="geometry" />
        </mxCell>
        <mxCell id="Z3jmQzQCZ1PrEpi4vK5F-12" value="+ onViewCreated(view: View, &#xa;     savedInstanceState: Bundle?)&#xa;+ initDeveloperSection()" style="text;strokeColor=none;fillColor=none;align=left;verticalAlign=top;spacingLeft=4;spacingRight=4;overflow=hidden;rotatable=0;points=[[0,0.5],[1,0.5]];portConstraint=eastwest;" parent="Z3jmQzQCZ1PrEpi4vK5F-9" vertex="1">
          <mxGeometry y="98" width="280" height="52" as="geometry" />
        </mxCell>
        <mxCell id="Z3jmQzQCZ1PrEpi4vK5F-13" value="ActualInformationWidget" style="swimlane;fontStyle=1;align=center;verticalAlign=top;childLayout=stackLayout;horizontal=1;startSize=26;horizontalStack=0;resizeParent=1;resizeParentMax=0;resizeLast=0;collapsible=1;marginBottom=0;" parent="1" vertex="1">
          <mxGeometry x="40" y="40" width="280" height="620" as="geometry" />
        </mxCell>
        <mxCell id="Z3jmQzQCZ1PrEpi4vK5F-14" value="- isClicked: Boolean&#xa;- GET_WIDGET_ID: String&#xa;- AIW_LEFT_SCROLL_BUTTON: String&#xa;- AIW_RIGHT_SCROLL_BUTTON: String&#xa;- ACTION_ON_CLICK_LV: String&#xa;- AIW_FROM_WIDGET: String&#xa;+ ITEM_POSITION: String&#xa;+ AIW_GO_TO_ACTIVITY: String" style="text;strokeColor=none;fillColor=none;align=left;verticalAlign=top;spacingLeft=4;spacingRight=4;overflow=hidden;rotatable=0;points=[[0,0.5],[1,0.5]];portConstraint=eastwest;" parent="Z3jmQzQCZ1PrEpi4vK5F-13" vertex="1">
          <mxGeometry y="26" width="280" height="124" as="geometry" />
        </mxCell>
        <mxCell id="Z3jmQzQCZ1PrEpi4vK5F-15" value="" style="line;strokeWidth=1;fillColor=none;align=left;verticalAlign=middle;spacingTop=-1;spacingLeft=3;spacingRight=3;rotatable=0;labelPosition=right;points=[];portConstraint=eastwest;" parent="Z3jmQzQCZ1PrEpi4vK5F-13" vertex="1">
          <mxGeometry y="150" width="280" height="8" as="geometry" />
        </mxCell>
        <mxCell id="Z3jmQzQCZ1PrEpi4vK5F-16" value="+ onUpdate(&#xa;     context: Context,&#xa;     appWidgetManager: AppWidgetManager,&#xa;     appWidgetIds: IntArray&#xa;     ): Void &#xa;&#xa;+onReceive(context: Context, &#xa;     intent: Intent): Void&#xa;&#xa;- updateAppWidget(&#xa;     context: Context,&#xa;     appWidgetManager: AppWidgetManager,&#xa;     appWidgetId: Int&#xa;     ): Void&#xa;&#xa;- checkIntentAction(context: Context, &#xa;     intent: Intent, views: RemoteViews, &#xa;     appWidgetManager: AppWidgetManager)&#xa;     : Void &#xa;&#xa;-getPendingSelfIntent(context: Context,&#xa;      action: String,&#xa;      appWidgetId: Int): PendingIntent&#xa;&#xa;- showLastCompanies(rv: RemoteViews, &#xa;     context: Context, appWidgetId: Int): Void&#xa;&#xa;- showChosenCompanies(rv: RemoteViews, &#xa;     context: Context, appWidgetId: Int): Void&#xa;&#xa;- setListClick(rv: RemoteViews, &#xa;     context: Context, appWidgetId: Int): Void" style="text;strokeColor=none;fillColor=none;align=left;verticalAlign=top;spacingLeft=4;spacingRight=4;overflow=hidden;rotatable=0;points=[[0,0.5],[1,0.5]];portConstraint=eastwest;" parent="Z3jmQzQCZ1PrEpi4vK5F-13" vertex="1">
          <mxGeometry y="158" width="280" height="462" as="geometry" />
        </mxCell>
        <mxCell id="Z3jmQzQCZ1PrEpi4vK5F-17" value="CompanyInfoStruct" style="swimlane;fontStyle=0;childLayout=stackLayout;horizontal=1;startSize=26;fillColor=none;horizontalStack=0;resizeParent=1;resizeParentMax=0;resizeLast=0;collapsible=1;marginBottom=0;" parent="1" vertex="1">
          <mxGeometry x="547" y="670" width="280" height="104" as="geometry" />
        </mxCell>
        <mxCell id="Z3jmQzQCZ1PrEpi4vK5F-18" value="+ companyName: String" style="text;strokeColor=none;fillColor=none;align=left;verticalAlign=top;spacingLeft=4;spacingRight=4;overflow=hidden;rotatable=0;points=[[0,0.5],[1,0.5]];portConstraint=eastwest;" parent="Z3jmQzQCZ1PrEpi4vK5F-17" vertex="1">
          <mxGeometry y="26" width="280" height="26" as="geometry" />
        </mxCell>
        <mxCell id="Z3jmQzQCZ1PrEpi4vK5F-19" value="+ companyLogoInfo: String" style="text;strokeColor=none;fillColor=none;align=left;verticalAlign=top;spacingLeft=4;spacingRight=4;overflow=hidden;rotatable=0;points=[[0,0.5],[1,0.5]];portConstraint=eastwest;" parent="Z3jmQzQCZ1PrEpi4vK5F-17" vertex="1">
          <mxGeometry y="52" width="280" height="26" as="geometry" />
        </mxCell>
        <mxCell id="Z3jmQzQCZ1PrEpi4vK5F-20" value="+ companySpecialization: String" style="text;strokeColor=none;fillColor=none;align=left;verticalAlign=top;spacingLeft=4;spacingRight=4;overflow=hidden;rotatable=0;points=[[0,0.5],[1,0.5]];portConstraint=eastwest;" parent="Z3jmQzQCZ1PrEpi4vK5F-17" vertex="1">
          <mxGeometry y="78" width="280" height="26" as="geometry" />
        </mxCell>
        <mxCell id="Z3jmQzQCZ1PrEpi4vK5F-21" value="LastAndChosenCompaniesStruct" style="swimlane;fontStyle=0;childLayout=stackLayout;horizontal=1;startSize=26;fillColor=none;horizontalStack=0;resizeParent=1;resizeParentMax=0;resizeLast=0;collapsible=1;marginBottom=0;" parent="1" vertex="1">
          <mxGeometry x="547" y="820" width="280" height="90" as="geometry" />
        </mxCell>
        <mxCell id="Z3jmQzQCZ1PrEpi4vK5F-22" value="+ chosenDate: Long&#xa;+ settedDate: Long&#xa;+ isLastCompaniesDisplay&#xa;+ isChosenCompaniesDisplay" style="text;strokeColor=none;fillColor=none;align=left;verticalAlign=top;spacingLeft=4;spacingRight=4;overflow=hidden;rotatable=0;points=[[0,0.5],[1,0.5]];portConstraint=eastwest;" parent="Z3jmQzQCZ1PrEpi4vK5F-21" vertex="1">
          <mxGeometry y="26" width="280" height="64" as="geometry" />
        </mxCell>
        <mxCell id="Z3jmQzQCZ1PrEpi4vK5F-26" value="UnpaidBillsStruct" style="swimlane;fontStyle=0;childLayout=stackLayout;horizontal=1;startSize=26;fillColor=none;horizontalStack=0;resizeParent=1;resizeParentMax=0;resizeLast=0;collapsible=1;marginBottom=0;" parent="1" vertex="1">
          <mxGeometry x="450" y="1420" width="280" height="70" as="geometry" />
        </mxCell>
        <mxCell id="Z3jmQzQCZ1PrEpi4vK5F-27" value="+ settedDate: Long&#xa;+ chosenDate: Long" style="text;strokeColor=none;fillColor=none;align=left;verticalAlign=top;spacingLeft=4;spacingRight=4;overflow=hidden;rotatable=0;points=[[0,0.5],[1,0.5]];portConstraint=eastwest;" parent="Z3jmQzQCZ1PrEpi4vK5F-26" vertex="1">
          <mxGeometry y="26" width="280" height="44" as="geometry" />
        </mxCell>
        <mxCell id="Z3jmQzQCZ1PrEpi4vK5F-30" value="UnpaidBillsWidget" style="swimlane;fontStyle=1;align=center;verticalAlign=top;childLayout=stackLayout;horizontal=1;startSize=26;horizontalStack=0;resizeParent=1;resizeParentMax=0;resizeLast=0;collapsible=1;marginBottom=0;" parent="1" vertex="1">
          <mxGeometry x="40" y="1050" width="280" height="580" as="geometry" />
        </mxCell>
        <mxCell id="Z3jmQzQCZ1PrEpi4vK5F-31" value="- isClicked: Boolean&#xa;- GET_WIDGET_ID: String&#xa;- ACTION_ON_CLICK_LV: String&#xa;- UBW_FROM_WIDGET: String&#xa;+ UBW_ITEM_POSITION: String&#xa;+ UBW_GO_TO_ACTIVITY: String" style="text;strokeColor=none;fillColor=none;align=left;verticalAlign=top;spacingLeft=4;spacingRight=4;overflow=hidden;rotatable=0;points=[[0,0.5],[1,0.5]];portConstraint=eastwest;" parent="Z3jmQzQCZ1PrEpi4vK5F-30" vertex="1">
          <mxGeometry y="26" width="280" height="124" as="geometry" />
        </mxCell>
        <mxCell id="Z3jmQzQCZ1PrEpi4vK5F-32" value="" style="line;strokeWidth=1;fillColor=none;align=left;verticalAlign=middle;spacingTop=-1;spacingLeft=3;spacingRight=3;rotatable=0;labelPosition=right;points=[];portConstraint=eastwest;" parent="Z3jmQzQCZ1PrEpi4vK5F-30" vertex="1">
          <mxGeometry y="150" width="280" height="8" as="geometry" />
        </mxCell>
        <mxCell id="Z3jmQzQCZ1PrEpi4vK5F-33" value="+ onUpdate(&#xa;     context: Context,&#xa;     appWidgetManager: AppWidgetManager,&#xa;     appWidgetIds: IntArray&#xa;     ): Void &#xa;&#xa;+onReceive(context: Context, &#xa;     intent: Intent): Void&#xa;&#xa;- updateAppWidget(&#xa;     context: Context,&#xa;     appWidgetManager: AppWidgetManager,&#xa;     appWidgetId: Int&#xa;     ): Void&#xa;&#xa;- checkIntentAction(context: Context, &#xa;     intent: Intent, views: RemoteViews, &#xa;     appWidgetManager: AppWidgetManager)&#xa;     : Void &#xa;&#xa;-getPendingSelfIntent(context: Context,&#xa;      action: String,&#xa;      appWidgetId: Int): PendingIntent&#xa;&#xa;- showUnpaidBills(rv: RemoteViews, &#xa;     context: Context, appWidgetId: Int): Void&#xa;&#xa;- setListClick(rv: RemoteViews, &#xa;     context: Context, appWidgetId: Int): Void" style="text;strokeColor=none;fillColor=none;align=left;verticalAlign=top;spacingLeft=4;spacingRight=4;overflow=hidden;rotatable=0;points=[[0,0.5],[1,0.5]];portConstraint=eastwest;" parent="Z3jmQzQCZ1PrEpi4vK5F-30" vertex="1">
          <mxGeometry y="158" width="280" height="422" as="geometry" />
        </mxCell>
        <mxCell id="Z3jmQzQCZ1PrEpi4vK5F-34" value="AdapterListViewChosenCompanies" style="swimlane;fontStyle=1;align=center;verticalAlign=top;childLayout=stackLayout;horizontal=1;startSize=26;horizontalStack=0;resizeParent=1;resizeParentMax=0;resizeLast=0;collapsible=1;marginBottom=0;" parent="1" vertex="1">
          <mxGeometry x="547" y="350" width="280" height="290" as="geometry" />
        </mxCell>
        <mxCell id="Z3jmQzQCZ1PrEpi4vK5F-35" value="- context: Context&#xa;- widgetId: Integer&#xa;+ data: ArrayList&lt;String&gt;" style="text;strokeColor=none;fillColor=none;align=left;verticalAlign=top;spacingLeft=4;spacingRight=4;overflow=hidden;rotatable=0;points=[[0,0.5],[1,0.5]];portConstraint=eastwest;" parent="Z3jmQzQCZ1PrEpi4vK5F-34" vertex="1">
          <mxGeometry y="26" width="280" height="54" as="geometry" />
        </mxCell>
        <mxCell id="Z3jmQzQCZ1PrEpi4vK5F-36" value="" style="line;strokeWidth=1;fillColor=none;align=left;verticalAlign=middle;spacingTop=-1;spacingLeft=3;spacingRight=3;rotatable=0;labelPosition=right;points=[];portConstraint=eastwest;" parent="Z3jmQzQCZ1PrEpi4vK5F-34" vertex="1">
          <mxGeometry y="80" width="280" height="8" as="geometry" />
        </mxCell>
        <mxCell id="Z3jmQzQCZ1PrEpi4vK5F-37" value="+ onCreate(): Void&#xa;+ onDataSetChanged(): Void&#xa;+ onDestroy(): Void&#xa;+ getCount(): Int&#xa;+ getViewAt(position: Int): RemoteViews&#xa;+ getLoadingView(): RemoteViews&#xa;+ getViewTypeCount(): Int&#xa;+ getItemId(position: Int): Long&#xa;+ hasStableIds(): Boolean" style="text;strokeColor=none;fillColor=none;align=left;verticalAlign=top;spacingLeft=4;spacingRight=4;overflow=hidden;rotatable=0;points=[[0,0.5],[1,0.5]];portConstraint=eastwest;" parent="Z3jmQzQCZ1PrEpi4vK5F-34" vertex="1">
          <mxGeometry y="88" width="280" height="202" as="geometry" />
        </mxCell>
        <mxCell id="Z3jmQzQCZ1PrEpi4vK5F-38" value="AdapterListViewLastCompanies" style="swimlane;fontStyle=1;align=center;verticalAlign=top;childLayout=stackLayout;horizontal=1;startSize=26;horizontalStack=0;resizeParent=1;resizeParentMax=0;resizeLast=0;collapsible=1;marginBottom=0;" parent="1" vertex="1">
          <mxGeometry x="547" y="40" width="280" height="290" as="geometry" />
        </mxCell>
        <mxCell id="Z3jmQzQCZ1PrEpi4vK5F-39" value="- context: Context&#xa;- widgetId: Integer&#xa;+ data: ArrayList&lt;String&gt;" style="text;strokeColor=none;fillColor=none;align=left;verticalAlign=top;spacingLeft=4;spacingRight=4;overflow=hidden;rotatable=0;points=[[0,0.5],[1,0.5]];portConstraint=eastwest;" parent="Z3jmQzQCZ1PrEpi4vK5F-38" vertex="1">
          <mxGeometry y="26" width="280" height="54" as="geometry" />
        </mxCell>
        <mxCell id="Z3jmQzQCZ1PrEpi4vK5F-40" value="" style="line;strokeWidth=1;fillColor=none;align=left;verticalAlign=middle;spacingTop=-1;spacingLeft=3;spacingRight=3;rotatable=0;labelPosition=right;points=[];portConstraint=eastwest;" parent="Z3jmQzQCZ1PrEpi4vK5F-38" vertex="1">
          <mxGeometry y="80" width="280" height="8" as="geometry" />
        </mxCell>
        <mxCell id="Z3jmQzQCZ1PrEpi4vK5F-41" value="+ onCreate(): Void&#xa;+ onDataSetChanged(): Void&#xa;+ onDestroy(): Void&#xa;+ getCount(): Int&#xa;+ getViewAt(position: Int): RemoteViews&#xa;+ getLoadingView(): RemoteViews&#xa;+ getViewTypeCount(): Int&#xa;+ getItemId(position: Int): Long&#xa;+ hasStableIds(): Boolean" style="text;strokeColor=none;fillColor=none;align=left;verticalAlign=top;spacingLeft=4;spacingRight=4;overflow=hidden;rotatable=0;points=[[0,0.5],[1,0.5]];portConstraint=eastwest;" parent="Z3jmQzQCZ1PrEpi4vK5F-38" vertex="1">
          <mxGeometry y="88" width="280" height="202" as="geometry" />
        </mxCell>
        <mxCell id="Z3jmQzQCZ1PrEpi4vK5F-42" value="AdapterListViewUnpaidBills" style="swimlane;fontStyle=1;align=center;verticalAlign=top;childLayout=stackLayout;horizontal=1;startSize=26;horizontalStack=0;resizeParent=1;resizeParentMax=0;resizeLast=0;collapsible=1;marginBottom=0;" parent="1" vertex="1">
          <mxGeometry x="450" y="1070" width="280" height="290" as="geometry" />
        </mxCell>
        <mxCell id="Z3jmQzQCZ1PrEpi4vK5F-43" value="- context: Context&#xa;- widgetId: Integer&#xa;+ data: ArrayList&lt;String&gt;" style="text;strokeColor=none;fillColor=none;align=left;verticalAlign=top;spacingLeft=4;spacingRight=4;overflow=hidden;rotatable=0;points=[[0,0.5],[1,0.5]];portConstraint=eastwest;" parent="Z3jmQzQCZ1PrEpi4vK5F-42" vertex="1">
          <mxGeometry y="26" width="280" height="54" as="geometry" />
        </mxCell>
        <mxCell id="Z3jmQzQCZ1PrEpi4vK5F-44" value="" style="line;strokeWidth=1;fillColor=none;align=left;verticalAlign=middle;spacingTop=-1;spacingLeft=3;spacingRight=3;rotatable=0;labelPosition=right;points=[];portConstraint=eastwest;" parent="Z3jmQzQCZ1PrEpi4vK5F-42" vertex="1">
          <mxGeometry y="80" width="280" height="8" as="geometry" />
        </mxCell>
        <mxCell id="Z3jmQzQCZ1PrEpi4vK5F-45" value="+ onCreate(): Void&#xa;+ onDataSetChanged(): Void&#xa;+ onDestroy(): Void&#xa;+ getCount(): Int&#xa;+ getViewAt(position: Int): RemoteViews&#xa;+ getLoadingView(): RemoteViews&#xa;+ getViewTypeCount(): Int&#xa;+ getItemId(position: Int): Long&#xa;+ hasStableIds(): Boolean" style="text;strokeColor=none;fillColor=none;align=left;verticalAlign=top;spacingLeft=4;spacingRight=4;overflow=hidden;rotatable=0;points=[[0,0.5],[1,0.5]];portConstraint=eastwest;" parent="Z3jmQzQCZ1PrEpi4vK5F-42" vertex="1">
          <mxGeometry y="88" width="280" height="202" as="geometry" />
        </mxCell>
        <mxCell id="T2P1ssfr1ydrcSsm6RWo-1" value="" style="endArrow=block;dashed=1;endFill=0;endSize=12;html=1;exitX=0.5;exitY=0;exitDx=0;exitDy=0;entryX=0.499;entryY=1.023;entryDx=0;entryDy=0;entryPerimeter=0;" edge="1" parent="1" source="Z3jmQzQCZ1PrEpi4vK5F-9" target="Z3jmQzQCZ1PrEpi4vK5F-8">
          <mxGeometry width="160" relative="1" as="geometry">
            <mxPoint x="1410" y="700" as="sourcePoint" />
            <mxPoint x="1570" y="700" as="targetPoint" />
          </mxGeometry>
        </mxCell>
        <mxCell id="T2P1ssfr1ydrcSsm6RWo-2" value="" style="endArrow=open;endFill=1;endSize=12;html=1;exitX=1;exitY=0.5;exitDx=0;exitDy=0;entryX=0;entryY=0.5;entryDx=0;entryDy=0;" edge="1" parent="1" source="Z3jmQzQCZ1PrEpi4vK5F-14" target="Z3jmQzQCZ1PrEpi4vK5F-39">
          <mxGeometry width="160" relative="1" as="geometry">
            <mxPoint x="500" y="410" as="sourcePoint" />
            <mxPoint x="660" y="410" as="targetPoint" />
            <Array as="points">
              <mxPoint x="370" y="128" />
              <mxPoint x="370" y="93" />
            </Array>
          </mxGeometry>
        </mxCell>
        <mxCell id="T2P1ssfr1ydrcSsm6RWo-3" value="" style="endArrow=open;endFill=1;endSize=12;html=1;exitX=1;exitY=0.5;exitDx=0;exitDy=0;entryX=0;entryY=0.5;entryDx=0;entryDy=0;" edge="1" parent="1" source="Z3jmQzQCZ1PrEpi4vK5F-14" target="Z3jmQzQCZ1PrEpi4vK5F-35">
          <mxGeometry width="160" relative="1" as="geometry">
            <mxPoint x="330" y="430" as="sourcePoint" />
            <mxPoint x="390" y="545" as="targetPoint" />
            <Array as="points">
              <mxPoint x="370" y="128" />
              <mxPoint x="370" y="403" />
            </Array>
          </mxGeometry>
        </mxCell>
        <mxCell id="T2P1ssfr1ydrcSsm6RWo-5" value="" style="endArrow=open;endFill=1;endSize=12;html=1;exitX=1;exitY=0.5;exitDx=0;exitDy=0;entryX=0;entryY=0.5;entryDx=0;entryDy=0;" edge="1" parent="1" source="Z3jmQzQCZ1PrEpi4vK5F-39" target="Z3jmQzQCZ1PrEpi4vK5F-2">
          <mxGeometry width="160" relative="1" as="geometry">
            <mxPoint x="680" y="310" as="sourcePoint" />
            <mxPoint x="840" y="310" as="targetPoint" />
            <Array as="points">
              <mxPoint x="870" y="93" />
              <mxPoint x="870" y="278" />
            </Array>
          </mxGeometry>
        </mxCell>
        <mxCell id="T2P1ssfr1ydrcSsm6RWo-6" value="" style="endArrow=open;endFill=1;endSize=12;html=1;entryX=-0.006;entryY=0.832;entryDx=0;entryDy=0;entryPerimeter=0;exitX=1;exitY=0.5;exitDx=0;exitDy=0;" edge="1" parent="1" source="Z3jmQzQCZ1PrEpi4vK5F-35" target="Z3jmQzQCZ1PrEpi4vK5F-2">
          <mxGeometry width="160" relative="1" as="geometry">
            <mxPoint x="680" y="410" as="sourcePoint" />
            <mxPoint x="840" y="410" as="targetPoint" />
            <Array as="points">
              <mxPoint x="880" y="403" />
              <mxPoint x="880" y="293" />
            </Array>
          </mxGeometry>
        </mxCell>
        <mxCell id="T2P1ssfr1ydrcSsm6RWo-7" value="" style="endArrow=open;endFill=1;endSize=12;html=1;entryX=-0.014;entryY=0.712;entryDx=0;entryDy=0;entryPerimeter=0;" edge="1" parent="1" target="Z3jmQzQCZ1PrEpi4vK5F-43">
          <mxGeometry width="160" relative="1" as="geometry">
            <mxPoint x="320" y="1138" as="sourcePoint" />
            <mxPoint x="810" y="1180" as="targetPoint" />
          </mxGeometry>
        </mxCell>
        <mxCell id="T2P1ssfr1ydrcSsm6RWo-8" value="" style="endArrow=open;endFill=1;endSize=12;html=1;exitX=1;exitY=0.5;exitDx=0;exitDy=0;entryX=0;entryY=0.5;entryDx=0;entryDy=0;" edge="1" parent="1" source="Z3jmQzQCZ1PrEpi4vK5F-31" target="Z3jmQzQCZ1PrEpi4vK5F-27">
          <mxGeometry width="160" relative="1" as="geometry">
            <mxPoint x="690" y="1320" as="sourcePoint" />
            <mxPoint x="850" y="1320" as="targetPoint" />
            <Array as="points">
              <mxPoint x="370" y="1138" />
              <mxPoint x="370" y="1468" />
            </Array>
          </mxGeometry>
        </mxCell>
        <mxCell id="T2P1ssfr1ydrcSsm6RWo-9" value="" style="endArrow=open;endFill=1;endSize=12;html=1;exitX=1;exitY=0.5;exitDx=0;exitDy=0;entryX=-0.011;entryY=0.155;entryDx=0;entryDy=0;entryPerimeter=0;" edge="1" parent="1" source="Z3jmQzQCZ1PrEpi4vK5F-14" target="Z3jmQzQCZ1PrEpi4vK5F-17">
          <mxGeometry width="160" relative="1" as="geometry">
            <mxPoint x="690" y="450" as="sourcePoint" />
            <mxPoint x="850" y="450" as="targetPoint" />
            <Array as="points">
              <mxPoint x="370" y="128" />
              <mxPoint x="370" y="686" />
            </Array>
          </mxGeometry>
        </mxCell>
        <mxCell id="T2P1ssfr1ydrcSsm6RWo-10" value="" style="endArrow=open;endFill=1;endSize=12;html=1;exitX=1;exitY=0.5;exitDx=0;exitDy=0;entryX=0;entryY=0.25;entryDx=0;entryDy=0;" edge="1" parent="1" source="Z3jmQzQCZ1PrEpi4vK5F-14" target="Z3jmQzQCZ1PrEpi4vK5F-21">
          <mxGeometry width="160" relative="1" as="geometry">
            <mxPoint x="690" y="590" as="sourcePoint" />
            <mxPoint x="850" y="590" as="targetPoint" />
            <Array as="points">
              <mxPoint x="370" y="128" />
              <mxPoint x="370" y="840" />
            </Array>
          </mxGeometry>
        </mxCell>
        <mxCell id="T2P1ssfr1ydrcSsm6RWo-11" value="" style="endArrow=open;endFill=1;endSize=12;html=1;exitX=0.5;exitY=0;exitDx=0;exitDy=0;entryX=0.52;entryY=1.042;entryDx=0;entryDy=0;entryPerimeter=0;" edge="1" parent="1" source="T2P1ssfr1ydrcSsm6RWo-12" target="Z3jmQzQCZ1PrEpi4vK5F-4">
          <mxGeometry width="160" relative="1" as="geometry">
            <mxPoint x="880" y="520" as="sourcePoint" />
            <mxPoint x="1170" y="470" as="targetPoint" />
          </mxGeometry>
        </mxCell>
        <mxCell id="T2P1ssfr1ydrcSsm6RWo-12" value="A" style="ellipse;whiteSpace=wrap;html=1;aspect=fixed;" vertex="1" parent="1">
          <mxGeometry x="1090" y="450" width="60" height="60" as="geometry" />
        </mxCell>
        <mxCell id="T2P1ssfr1ydrcSsm6RWo-13" value="A" style="ellipse;whiteSpace=wrap;html=1;aspect=fixed;" vertex="1" parent="1">
          <mxGeometry x="560" y="970" width="60" height="60" as="geometry" />
        </mxCell>
        <mxCell id="T2P1ssfr1ydrcSsm6RWo-14" value="" style="endArrow=open;endFill=1;endSize=12;html=1;exitX=0.5;exitY=0;exitDx=0;exitDy=0;entryX=0.5;entryY=1;entryDx=0;entryDy=0;" edge="1" parent="1" source="Z3jmQzQCZ1PrEpi4vK5F-42" target="T2P1ssfr1ydrcSsm6RWo-13">
          <mxGeometry width="160" relative="1" as="geometry">
            <mxPoint x="880" y="950" as="sourcePoint" />
            <mxPoint x="1040" y="950" as="targetPoint" />
          </mxGeometry>
        </mxCell>
        <mxCell id="T2P1ssfr1ydrcSsm6RWo-15" value="A" style="ellipse;whiteSpace=wrap;html=1;aspect=fixed;" vertex="1" parent="1">
          <mxGeometry x="1350" y="728" width="60" height="60" as="geometry" />
        </mxCell>
        <mxCell id="T2P1ssfr1ydrcSsm6RWo-16" value="" style="endArrow=open;endFill=1;endSize=12;html=1;entryX=0;entryY=0.5;entryDx=0;entryDy=0;exitX=1;exitY=0.5;exitDx=0;exitDy=0;" edge="1" parent="1" source="T2P1ssfr1ydrcSsm6RWo-15" target="Z3jmQzQCZ1PrEpi4vK5F-10">
          <mxGeometry width="160" relative="1" as="geometry">
            <mxPoint x="1310" y="810" as="sourcePoint" />
            <mxPoint x="1470" y="810" as="targetPoint" />
          </mxGeometry>
        </mxCell>
      </root>
    </mxGraphModel>
  </diagram>
</mxfile>
